<svg width="100" viewBox="0 0 75 75" height="100" version="1.0" xmlns="http://www.w3.org/2000/svg"><defs><clipPath id="a"><path d="M233 170h3.926v10H233zm0 0"/></clipPath><clipPath id="b"><path d="M275 140h12.93v61H275zm0 0"/></clipPath><clipPath id="c"><path d="M86.93 140H99v61H86.93zm0 0"/></clipPath><clipPath id="d"><path d="M116 63.887h142V122H116zm0 0"/></clipPath><clipPath id="e"><path d="M167 228h45v24.887h-45zm0 0"/></clipPath></defs><path fill="#FFF" style="fill:#fff;fill-opacity:0" d="M-37.5-37.5h450v450h-450z"/><path fill="#fff" style="fill:#fff;fill-opacity:0" d="M-37.5-37.5h450v450h-450z"/><path d="M37.633 40.014a.532.532 0 0 1-.531.534h-.405a.532.532 0 0 1-.532-.534v-9.956c0-.295.238-.534.532-.534h.405c.294 0 .531.24.531.534v9.956M39.43 38.664a.533.533 0 0 1-.532.534h-.031a.533.533 0 0 1-.531-.534v-7.255c0-.295.238-.534.531-.534h.031c.294 0 .532.239.532.534v7.255M40.991 37.266a.501.501 0 0 1-.499.503.502.502 0 0 1-.5-.503v-4.46c0-.278.224-.503.5-.503s.5.225.5.503v4.46M42.46 38.491a.438.438 0 1 1-.875 0v-6.91a.438.438 0 1 1 .875 0v6.91M43.834 36.544a.407.407 0 0 1-.406.408.407.407 0 0 1-.406-.408v-3.016a.407.407 0 1 1 .812 0v3.016M45.053 36.042c0 .19-.154.345-.344.345a.345.345 0 0 1-.343-.345V34.03a.344.344 0 1 1 .687 0v2.01" style="stroke-width:.186567"/><g clip-path="url(#a)" transform="matrix(.18657 0 0 .18657 1.932 2.319)"><path d="M236.32 178.313a1.51 1.51 0 0 1-1.507 1.511 1.51 1.51 0 0 1-1.508-1.512v-5.894c0-.84.675-1.516 1.507-1.516a1.51 1.51 0 0 1 1.508 1.516v5.894"/></g><path d="M34.369 38.664c0 .294.238.534.531.534h.03c.295 0 .532-.24.532-.534v-7.255a.532.532 0 0 0-.531-.534h-.03a.532.532 0 0 0-.532.534v7.255M32.806 37.266c0 .278.224.503.5.503.277 0 .5-.225.5-.503v-4.46a.501.501 0 0 0-.5-.503c-.276 0-.5.225-.5.503v4.46M31.339 38.491a.438.438 0 1 0 .875 0v-6.91a.438.438 0 1 0-.875 0v6.91M29.964 36.544a.407.407 0 1 0 .812 0v-3.016a.407.407 0 0 0-.406-.408.407.407 0 0 0-.406.408v3.016M28.746 36.042c0 .19.153.345.344.345.19 0 .343-.155.343-.345V34.03a.344.344 0 1 0-.687 0v2.01M27.777 35.586a.282.282 0 1 0 .563 0v-1.1a.282.282 0 1 0-.563 0v1.1" style="stroke-width:.186567"/><g clip-path="url(#b)" transform="matrix(.18657 0 0 .18657 1.932 2.319)"><path d="M275.871 140.738v59.422c7.254-5.836 12.059-16.824 12.059-29.715 0-12.89-4.805-23.879-12.059-29.707zm0 0"/></g><path d="M24.15 41.996c-1.24 0-2.25-1.01-2.25-2.25V28.491c0-1.24 1.01-2.25 2.25-2.25s2.25 1.01 2.25 2.25v11.253c0 1.241-1.01 2.25-2.25 2.25zm0 0" style="stroke-width:.186567"/><g clip-path="url(#c)" transform="matrix(.18657 0 0 .18657 1.932 2.319)"><path d="M98.988 140.738c-7.254 5.828-12.058 16.82-12.058 29.711 0 12.89 4.804 23.875 12.058 29.711zm0 0"/></g><g clip-path="url(#d)" transform="matrix(.18657 0 0 .18657 1.932 2.319)"><path d="M255.77 120.184c.757 0 1.476.14 2.214.226-7.254-32.3-36.109-56.52-70.554-56.52-34.446 0-63.297 24.22-70.555 56.52.734-.086 1.46-.226 2.215-.226 2.062 0 4.012.402 5.887.984 6.816-28.203 32.195-49.234 62.453-49.234 30.25 0 55.636 21.03 62.453 49.234 1.875-.582 3.82-.984 5.887-.984zm0 0"/></g><path d="M49.65 41.996c-1.24 0-2.25-1.01-2.25-2.25V28.491c0-1.24 1.01-2.25 2.25-2.25s2.25 1.01 2.25 2.25v11.253c0 1.241-1.01 2.25-2.25 2.25zm0 0" style="stroke-width:.186567"/><g clip-path="url(#e)" transform="matrix(.18657 0 0 .18657 1.932 2.319)"><path d="M199.488 252.879h-20.097c-6.649 0-12.063-5.41-12.063-12.063 0-6.648 5.414-12.062 12.063-12.062h20.097c6.653 0 12.063 5.414 12.063 12.062 0 6.653-5.41 12.063-12.063 12.063zm0 0"/></g><path d="M49.65 43.496c-.369 0-.72-.07-1.056-.17-.662 2.037-2.38 3.171-4.944 3.171h-.826a3.68 3.68 0 0 1 0 1.501h.826c3.37 0 5.705-1.696 6.473-4.549-.157.02-.311.047-.473.047zm0 0" style="stroke-width:.186567"/><path d="m24.172 56.413.53-3.521h1.085v4.961h-.735v-3.559l-.539 3.56h-.738l-.583-3.51v3.51h-.679v-4.962h1.085zM27.568 56.21l-.986-3.318h.814l.597 2.26.595-2.26h.743l-.985 3.317v1.644h-.778zM31.606 54.081c0-.402.095-.71.286-.924.193-.216.48-.323.863-.323s.669.107.86.323c.192.214.289.522.289.924v.193h-.738v-.242c0-.179-.034-.305-.102-.38a.37.37 0 0 0-.286-.11.373.373 0 0 0-.288.11c-.069.075-.102.201-.102.38a.88.88 0 0 0 .113.452c.076.128.17.25.283.367.112.116.234.233.365.35.13.115.251.24.364.379.114.136.21.291.286.466.075.175.113.38.113.615 0 .402-.098.711-.294.927-.197.214-.486.32-.869.32s-.673-.106-.869-.32c-.196-.216-.294-.525-.294-.927v-.338h.738v.388c0 .18.035.307.107.379a.41.41 0 0 0 .295.105.405.405 0 0 0 .294-.105c.074-.072.111-.199.111-.38a.877.877 0 0 0-.114-.448 1.903 1.903 0 0 0-.282-.368 6.69 6.69 0 0 0-.365-.346 3.688 3.688 0 0 1-.367-.38 1.97 1.97 0 0 1-.283-.469 1.544 1.544 0 0 1-.114-.618zM35.987 52.892c.392 0 .684.104.875.312.192.208.288.512.288.912v.647c0 .401-.096.705-.288.913-.191.208-.483.312-.875.312h-.367v1.865h-.781v-4.961zm-.367.708v1.68h.367c.123 0 .217-.033.283-.1.068-.065.102-.188.102-.367v-.746c0-.179-.034-.301-.102-.368a.385.385 0 0 0-.283-.099zM38.71 56.71c0 .181.036.309.108.383a.406.406 0 0 0 .297.107c.123 0 .22-.035.292-.107.073-.074.11-.202.11-.382v-2.68c0-.178-.037-.304-.11-.378a.39.39 0 0 0-.292-.111.402.402 0 0 0-.297.11c-.072.075-.108.201-.108.38zm-.781-2.629c0-.402.102-.71.306-.924.204-.216.497-.323.88-.323s.675.107.878.323c.204.214.306.522.306.924v2.58c0 .402-.102.711-.306.927-.203.214-.495.32-.878.32s-.676-.106-.88-.32c-.204-.216-.306-.525-.306-.927zM41.07 52.892h2.41v.708h-.813v4.253h-.782V53.6h-.816zM44.316 52.892h.78v4.961h-.78zM46.926 55.096h1.005v.708h-1.005v2.05h-.781v-4.962h2.063v.708h-1.282zM49.797 56.21l-.986-3.318h.814l.597 2.26.595-2.26h.743l-.985 3.317v1.644h-.778zm0 0"/></svg>