<svg width="480" viewBox="0 0 360 360" height="480" version="1.0"
    xmlns="http://www.w3.org/2000/svg">
    <defs>
        <clipPath id="a">
            <path d="M233 170h3.926v10H233zm0 0"/>
        </clipPath>
        <clipPath id="b">
            <path d="M275 140h12.93v61H275zm0 0"/>
        </clipPath>
        <clipPath id="c">
            <path d="M86.93 140H99v61H86.93zm0 0"/>
        </clipPath>
        <clipPath id="d">
            <path d="M116 63.887h142V122H116zm0 0"/>
        </clipPath>
        <clipPath id="e">
            <path d="M167 228h45v24.887h-45zm0 0"/>
        </clipPath>
    </defs>
    <path fill="none" style="fill:#fff;fill-opacity:0" d="M-37.5-37.5h450v450h-450z"/>
    <path fill="none" style="fill:#fff;fill-opacity:0" d="M-37.5-37.5h450v450h-450z"/>
    <path d="M187.456 231.013c0 2.224-1.79 4.025-4.003 4.025H180.4c-2.213 0-4.003-1.8-4.003-4.025v-75.019c0-2.218 1.79-4.025 4.003-4.025h3.053c2.213 0 4.003 1.807 4.003 4.025v75.02m13.536-10.176c0 2.22-1.79 4.025-4.003 4.025h-.236c-2.208 0-4.003-1.806-4.003-4.025v-54.663c0-2.224 1.795-4.025 4.003-4.025h.236c2.213 0 4.003 1.8 4.003 4.025v54.663m11.767-10.53c0 2.091-1.686 3.787-3.761 3.787a3.782 3.782 0 0 1-3.773-3.788V176.7a3.782 3.782 0 0 1 3.773-3.789c2.075 0 3.76 1.697 3.76 3.79v33.605m11.066 9.231a3.304 3.304 0 0 1-3.295 3.311 3.3 3.3 0 0 1-3.295-3.31V167.47a3.3 3.3 0 0 1 3.295-3.312 3.304 3.304 0 0 1 3.295 3.312v52.066m10.356-14.67a3.066 3.066 0 0 1-3.06 3.074 3.066 3.066 0 0 1-3.057-3.075v-22.722a3.066 3.066 0 0 1 3.058-3.075 3.066 3.066 0 0 1 3.059 3.075v22.722m9.18-3.783a2.599 2.599 0 0 1-2.591 2.602 2.598 2.598 0 0 1-2.586-2.602v-15.15a2.594 2.594 0 0 1 2.586-2.603 2.595 2.595 0 0 1 2.592 2.603v15.15" style="stroke-width:1.40572"/>
    <g clip-path="url(#a)" transform="translate(-81.541 -53.008) scale(1.40572)">
        <path d="M236.32 178.313a1.51 1.51 0 0 1-1.507 1.511 1.51 1.51 0 0 1-1.508-1.512v-5.894c0-.84.675-1.516 1.507-1.516a1.51 1.51 0 0 1 1.508 1.516v5.894"/>
    </g>
    <path d="M162.862 220.838c0 2.22 1.79 4.025 4.003 4.025h.23c2.213 0 4.003-1.806 4.003-4.025v-54.663c0-2.224-1.79-4.025-4.003-4.025h-.23c-2.213 0-4.003 1.8-4.003 4.025v54.663m-11.773-10.53c0 2.091 1.685 3.787 3.767 3.787 2.08 0 3.766-1.696 3.766-3.788V176.7c0-2.092-1.685-3.789-3.766-3.789-2.082 0-3.767 1.697-3.767 3.79v33.605m-11.06 9.231a3.304 3.304 0 0 0 3.295 3.311 3.3 3.3 0 0 0 3.295-3.31V167.47a3.3 3.3 0 0 0-3.295-3.312 3.304 3.304 0 0 0-3.294 3.312v52.066m-10.357-14.67a3.066 3.066 0 0 0 3.059 3.074 3.066 3.066 0 0 0 3.058-3.075v-22.722a3.066 3.066 0 0 0-3.058-3.075 3.066 3.066 0 0 0-3.06 3.075v22.722m-9.18-3.783a2.599 2.599 0 0 0 2.592 2.602 2.598 2.598 0 0 0 2.586-2.602v-15.15a2.594 2.594 0 0 0-2.586-2.603 2.595 2.595 0 0 0-2.592 2.603v15.15m-7.297-3.432c0 1.175.95 2.125 2.12 2.125 1.169 0 2.119-.95 2.119-2.125v-8.286c0-1.18-.95-2.13-2.12-2.13-1.17 0-2.12.95-2.12 2.13v8.286" style="stroke-width:1.40572"/>
    <g clip-path="url(#b)" transform="translate(-81.541 -53.008) scale(1.40572)">
        <path d="M275.871 140.738v59.422c7.254-5.836 12.059-16.824 12.059-29.715 0-12.89-4.805-23.879-12.059-29.707zm0 0"/>
    </g>
    <path d="M85.865 245.944c-9.345 0-16.95-7.605-16.95-16.957V144.2c0-9.345 7.605-16.956 16.95-16.956 9.346 0 16.95 7.61 16.95 16.956v84.788c0 9.352-7.604 16.957-16.95 16.957zm0 0" style="stroke-width:1.40572"/>
    <g clip-path="url(#c)" transform="translate(-81.541 -53.008) scale(1.40572)">
        <path d="M98.988 140.738c-7.254 5.828-12.058 16.82-12.058 29.711 0 12.89 4.804 23.875 12.058 29.711zm0 0"/>
    </g>
    <g clip-path="url(#d)" transform="translate(-81.541 -53.008) scale(1.40572)">
        <path d="M255.77 120.184c.757 0 1.476.14 2.214.226-7.254-32.3-36.109-56.52-70.554-56.52-34.446 0-63.297 24.22-70.555 56.52.734-.086 1.46-.226 2.215-.226 2.062 0 4.012.402 5.887.984 6.816-28.203 32.195-49.234 62.453-49.234 30.25 0 55.636 21.03 62.453 49.234 1.875-.582 3.82-.984 5.887-.984zm0 0"/>
    </g>
    <path d="M277.999 245.944c-9.346 0-16.951-7.605-16.951-16.957V144.2c0-9.345 7.605-16.956 16.95-16.956 9.347 0 16.952 7.61 16.952 16.956v84.788c0 9.352-7.605 16.957-16.951 16.957zm0 0" style="stroke-width:1.40572"/>
    <g clip-path="url(#e)" transform="translate(-81.541 -53.008) scale(1.40572)">
        <path d="M199.488 252.879h-20.097c-6.649 0-12.063-5.41-12.063-12.063 0-6.648 5.414-12.062 12.063-12.062h20.097c6.653 0 12.063 5.414 12.063 12.062 0 6.653-5.41 12.063-12.063 12.063zm0 0"/>
    </g>
    <path d="M277.999 257.25c-2.78 0-5.42-.533-7.957-1.28-4.986 15.343-17.934 23.892-37.251 23.892h-6.227a27.73 27.73 0 0 1 .576 5.65c0 1.94-.197 3.828-.576 5.656h6.227c25.39 0 42.984-12.777 48.77-34.275-1.18.148-2.343.357-3.562.357zm0 0" style="stroke-width:1.40572"/>
</svg>