<svg width="480" viewBox="0 0 360 360" height="480" version="1.0"
    xmlns="http://www.w3.org/2000/svg">
    <defs>
        <clipPath id="a">
            <path d="M233 170h3.926v10H233zm0 0"/>
        </clipPath>
        <clipPath id="b">
            <path d="M275 140h12.93v61H275zm0 0"/>
        </clipPath>
        <clipPath id="c">
            <path d="M86.93 140H99v61H86.93zm0 0"/>
        </clipPath>
        <clipPath id="d">
            <path d="M116 63.887h142V122H116zm0 0"/>
        </clipPath>
        <clipPath id="e">
            <path d="M167 228h45v24.887h-45zm0 0"/>
        </clipPath>
    </defs>
    <path fill="#FFF" style="fill:#fff;fill-opacity:0" d="M-37.5-37.5h450v450h-450z"/>
    <path fill="#fff" style="fill:#fff;fill-opacity:0" d="M-37.5-37.5h450v450h-450z"/>
    <path d="M187.731 213.803c0 2.224-1.79 4.025-4.003 4.025h-3.053c-2.213 0-4.003-1.8-4.003-4.025v-75.019c0-2.218 1.79-4.025 4.003-4.025h3.053c2.213 0 4.003 1.807 4.003 4.025v75.02M201.267 203.628c0 2.219-1.79 4.025-4.003 4.025h-.236c-2.208 0-4.003-1.806-4.003-4.025v-54.663c0-2.224 1.795-4.025 4.003-4.025h.236c2.213 0 4.003 1.8 4.003 4.025v54.663M213.034 193.097c0 2.092-1.686 3.788-3.761 3.788a3.782 3.782 0 0 1-3.773-3.788V159.49a3.782 3.782 0 0 1 3.773-3.789c2.075 0 3.761 1.697 3.761 3.79v33.605M224.099 202.327a3.304 3.304 0 0 1-3.295 3.311 3.3 3.3 0 0 1-3.295-3.31V150.26a3.3 3.3 0 0 1 3.295-3.312 3.304 3.304 0 0 1 3.295 3.312v52.066M234.455 187.655a3.066 3.066 0 0 1-3.059 3.075 3.066 3.066 0 0 1-3.058-3.075v-22.722a3.066 3.066 0 0 1 3.058-3.075 3.066 3.066 0 0 1 3.059 3.075v22.722M243.636 183.872a2.599 2.599 0 0 1-2.592 2.602 2.598 2.598 0 0 1-2.586-2.602v-15.15a2.594 2.594 0 0 1 2.586-2.603 2.595 2.595 0 0 1 2.592 2.603v15.15" style="stroke-width:1.40572"/>
    <g clip-path="url(#a)" transform="matrix(1.40572 0 0 1.40572 -81.266 -70.218)">
        <path d="M236.32 178.313a1.51 1.51 0 0 1-1.507 1.511 1.51 1.51 0 0 1-1.508-1.512v-5.894c0-.84.675-1.516 1.507-1.516a1.51 1.51 0 0 1 1.508 1.516v5.894"/>
    </g>
    <path d="M163.137 203.628c0 2.219 1.79 4.025 4.003 4.025h.23c2.213 0 4.003-1.806 4.003-4.025v-54.663c0-2.224-1.79-4.025-4.003-4.025h-.23c-2.213 0-4.003 1.8-4.003 4.025v54.663M151.364 193.097c0 2.092 1.685 3.788 3.767 3.788 2.08 0 3.766-1.696 3.766-3.788V159.49c0-2.092-1.685-3.789-3.766-3.789-2.082 0-3.767 1.697-3.767 3.79v33.605M140.305 202.327a3.304 3.304 0 0 0 3.294 3.311 3.3 3.3 0 0 0 3.295-3.31V150.26a3.3 3.3 0 0 0-3.295-3.312 3.304 3.304 0 0 0-3.294 3.312v52.066M129.948 187.655a3.066 3.066 0 0 0 3.059 3.075 3.066 3.066 0 0 0 3.058-3.075v-22.722a3.066 3.066 0 0 0-3.058-3.075 3.066 3.066 0 0 0-3.059 3.075v22.722M120.767 183.872a2.599 2.599 0 0 0 2.592 2.602 2.598 2.598 0 0 0 2.586-2.602v-15.15a2.594 2.594 0 0 0-2.586-2.603 2.595 2.595 0 0 0-2.592 2.603v15.15M113.47 180.44c0 1.175.95 2.125 2.12 2.125 1.169 0 2.119-.95 2.119-2.125v-8.286c0-1.181-.95-2.131-2.12-2.131-1.17 0-2.12.95-2.12 2.13v8.287" style="stroke-width:1.40572"/>
    <g clip-path="url(#b)" transform="matrix(1.40572 0 0 1.40572 -81.266 -70.218)">
        <path d="M275.871 140.738v59.422c7.254-5.836 12.059-16.824 12.059-29.715 0-12.89-4.805-23.879-12.059-29.707zm0 0"/>
    </g>
    <path d="M86.14 228.734c-9.345 0-16.95-7.605-16.95-16.957V126.99c0-9.345 7.605-16.956 16.95-16.956 9.346 0 16.951 7.61 16.951 16.956v84.788c0 9.352-7.605 16.957-16.95 16.957zm0 0" style="stroke-width:1.40572"/>
    <g clip-path="url(#c)" transform="matrix(1.40572 0 0 1.40572 -81.266 -70.218)">
        <path d="M98.988 140.738c-7.254 5.828-12.058 16.82-12.058 29.711 0 12.89 4.804 23.875 12.058 29.711zm0 0"/>
    </g>
    <g clip-path="url(#d)" transform="matrix(1.40572 0 0 1.40572 -81.266 -70.218)">
        <path d="M255.77 120.184c.757 0 1.476.14 2.214.226-7.254-32.3-36.109-56.52-70.554-56.52-34.446 0-63.297 24.22-70.555 56.52.734-.086 1.46-.226 2.215-.226 2.062 0 4.012.402 5.887.984 6.816-28.203 32.195-49.234 62.453-49.234 30.25 0 55.636 21.03 62.453 49.234 1.875-.582 3.82-.984 5.887-.984zm0 0"/>
    </g>
    <path d="M278.274 228.734c-9.346 0-16.951-7.605-16.951-16.957V126.99c0-9.345 7.605-16.956 16.95-16.956 9.347 0 16.952 7.61 16.952 16.956v84.788c0 9.352-7.605 16.957-16.951 16.957zm0 0" style="stroke-width:1.40572"/>
    <g clip-path="url(#e)" transform="matrix(1.40572 0 0 1.40572 -81.266 -70.218)">
        <path d="M199.488 252.879h-20.097c-6.649 0-12.063-5.41-12.063-12.063 0-6.648 5.414-12.062 12.063-12.062h20.097c6.653 0 12.063 5.414 12.063 12.062 0 6.653-5.41 12.063-12.063 12.063zm0 0"/>
    </g>
    <path d="M278.274 240.04c-2.779 0-5.42-.533-7.957-1.28-4.986 15.343-17.934 23.892-37.251 23.892h-6.227c.379 1.823.576 3.712.576 5.65 0 1.939-.197 3.828-.576 5.656h6.227c25.39 0 42.984-12.777 48.771-34.275-1.18.148-2.344.357-3.563.357zm0 0" style="stroke-width:1.40572"/>
    <path d="m86.306 337.365 3.997-26.533h8.17v37.383H92.94v-26.818l-4.064 26.818H83.32l-4.393-26.445v26.445h-5.118v-37.383h8.17zM111.89 335.827l-7.424-24.995h6.128l4.503 17.022 4.48-17.022h5.602l-7.424 24.995v12.388h-5.865zM142.322 319.793c0-3.03.714-5.348 2.153-6.962 1.45-1.626 3.613-2.438 6.501-2.438 2.883 0 5.04.812 6.48 2.438 1.45 1.614 2.174 3.931 2.174 6.962v1.45h-5.557v-1.823c0-1.345-.258-2.295-.769-2.855-.516-.555-1.23-.835-2.152-.835-.94 0-1.664.28-2.175.835-.516.56-.769 1.51-.769 2.855 0 1.29.286 2.427.857 3.405.571.966 1.28 1.888 2.13 2.767a50.787 50.787 0 0 0 2.746 2.636 25.061 25.061 0 0 1 2.746 2.855 14.217 14.217 0 0 1 2.152 3.514c.571 1.318.857 2.867.857 4.635 0 3.031-.741 5.36-2.219 6.985-1.482 1.614-3.662 2.416-6.545 2.416-2.888 0-5.068-.802-6.545-2.416-1.483-1.626-2.219-3.954-2.219-6.985v-2.548h5.557v2.921c0 1.362.27 2.318.813 2.856.555.527 1.296.79 2.218.79.934 0 1.675-.263 2.219-.79.554-.538.834-1.494.834-2.856 0-1.274-.285-2.4-.856-3.382a14.339 14.339 0 0 0-2.13-2.768 50.405 50.405 0 0 0-2.746-2.613 27.786 27.786 0 0 1-2.768-2.856 14.848 14.848 0 0 1-2.13-3.536c-.571-1.318-.857-2.866-.857-4.657zM175.33 310.832c2.953 0 5.15.785 6.588 2.35 1.45 1.57 2.175 3.86 2.175 6.875v4.876c0 3.02-.725 5.31-2.175 6.875-1.438 1.57-3.635 2.35-6.589 2.35h-2.767v14.057h-5.887v-37.383zm-2.768 5.337v12.652h2.767c.923 0 1.631-.247 2.13-.747.511-.494.77-1.417.77-2.768v-5.622c0-1.346-.259-2.268-.77-2.768-.499-.494-1.207-.747-2.13-.747zM195.845 339.605c0 1.362.27 2.323.813 2.878.554.543 1.301.812 2.24.812.923 0 1.653-.269 2.196-.812.555-.555.835-1.516.835-2.878V319.42c0-1.345-.28-2.295-.835-2.855-.543-.555-1.273-.835-2.196-.835-.939 0-1.686.28-2.24.835-.544.56-.813 1.51-.813 2.855zm-5.886-19.812c0-3.03.768-5.348 2.306-6.962 1.537-1.626 3.745-2.438 6.633-2.438 2.883 0 5.085.812 6.611 2.438 1.538 1.614 2.307 3.931 2.307 6.962v19.439c0 3.031-.77 5.36-2.307 6.985-1.526 1.614-3.728 2.416-6.61 2.416-2.89 0-5.097-.802-6.634-2.416-1.538-1.626-2.306-3.954-2.306-6.985zM213.62 310.832h18.164v5.337h-6.128v32.046h-5.886V316.17h-6.15zM238.082 310.832h5.886v37.383h-5.886zM257.748 327.437h7.578v5.337h-7.578v15.441h-5.887v-37.383h15.551v5.337h-9.664zM279.379 335.827l-7.424-24.995h6.128l4.502 17.022 4.481-17.022h5.601l-7.424 24.995v12.388h-5.864zm0 0"/>
</svg>